<?xml version="1.0" standalone="no"?>
<!DOCTYPE svg PUBLIC "-//W3C//DTD SVG 20010904//EN"
 "http://www.w3.org/TR/2001/REC-SVG-20010904/DTD/svg10.dtd">
<svg version="1.0" xmlns="http://www.w3.org/2000/svg"
 width="300.000000pt" height="300.000000pt" viewBox="0 0 300.000000 300.000000"
 preserveAspectRatio="xMidYMid meet">
<metadata>
Created by potrace 1.10, written by Peter Selinger 2001-2011
</metadata>
<g transform="translate(0.000000,300.000000) scale(0.100000,-0.100000)"
fill="#000000" stroke="none">
<path d="M1178 1762 l-27 -3 -1 -225 0 -224 30 0 30 0 0 124 c0 123 0 125 26
145 33 26 55 26 85 2 23 -18 24 -25 24 -145 l0 -126 28 0 27 0 0 131 0 131
-30 30 c-28 27 -36 30 -76 25 -25 -2 -53 -12 -64 -22 -19 -17 -19 -15 -22 71
l-3 89 -27 -3z"/>
<path d="M1892 1738 c-33 -33 7 -95 51 -79 29 11 39 44 21 70 -17 23 -53 28
-72 9z"/>
<path d="M980 1625 c0 -38 -3 -45 -20 -45 -11 0 -20 -4 -20 -10 0 -5 9 -10 20
-10 19 0 20 -7 20 -105 0 -92 3 -108 20 -125 29 -29 110 -26 110 4 0 8 -11 11
-30 8 -37 -5 -38 -2 -42 121 l-3 97 33 0 c17 0 32 5 32 10 0 6 -15 10 -33 10
-32 0 -32 0 -29 45 4 44 4 45 -27 45 -30 0 -31 -1 -31 -45z m43 -45 c6 -24
-18 -48 -27 -25 -6 17 2 45 14 45 4 0 10 -9 13 -20z"/>
<path d="M2042 1625 c3 -41 1 -45 -19 -45 -13 0 -23 -4 -23 -10 0 -5 9 -10 19
-10 17 0 19 -10 23 -104 2 -85 6 -108 22 -125 23 -25 87 -29 106 -6 13 15 8
19 -23 15 -39 -4 -47 18 -47 121 l0 99 30 0 c17 0 30 5 30 10 0 6 -13 10 -30
10 -29 0 -30 2 -30 45 0 44 -1 45 -31 45 -31 0 -31 -1 -27 -45z"/>
<path d="M377 1413 l3 -228 27 0 26 0 -2 73 c-1 39 0 72 2 72 3 0 21 -7 41
-15 65 -27 139 7 165 78 6 16 11 56 11 90 0 97 -42 146 -126 147 -28 0 -50 -7
-69 -22 l-28 -22 5 27 c5 25 3 27 -26 27 l-31 0 2 -227z m193 155 c14 -23 20
-51 20 -91 0 -110 -50 -164 -124 -133 l-36 15 0 99 c0 118 14 142 81 142 34 0
42 -5 59 -32z"/>
<path d="M743 1615 c-41 -18 -60 -51 -33 -58 13 -3 24 3 35 19 10 16 25 24 45
24 38 0 60 -24 60 -64 0 -32 -2 -33 -55 -45 -77 -17 -115 -51 -115 -102 0 -53
27 -79 83 -79 24 0 52 7 63 15 25 19 34 19 34 0 0 -10 10 -15 28 -15 l27 0 -5
127 c-3 71 -10 136 -14 146 -20 42 -94 58 -153 32z m107 -188 c0 -65 -21 -90
-71 -85 -73 7 -57 96 22 124 50 18 49 19 49 -39z"/>
<path d="M1493 1622 c-23 -3 -23 -5 -23 -158 l0 -154 31 0 30 0 -2 123 c-2
129 0 140 31 157 15 8 24 6 40 -10 18 -18 20 -33 20 -145 l0 -125 30 0 30 0 0
135 c0 131 1 136 23 144 14 6 29 5 42 -4 18 -11 20 -25 23 -144 l3 -131 29 0
30 0 0 131 0 131 -30 30 c-27 26 -36 30 -67 25 -20 -4 -43 -13 -52 -21 -13
-13 -16 -13 -26 0 -16 23 -88 30 -104 10 -16 -19 -28 -21 -33 -3 -2 6 -13 11
-25 9z"/>
<path d="M1898 1468 l-3 -158 32 0 32 0 -3 158 -3 157 -26 0 -26 1 -3 -158z"/>
<path d="M2227 1623 c-4 -3 -7 -75 -7 -160 l0 -153 30 0 30 0 0 123 c0 110 2
126 20 142 13 11 27 15 44 11 23 -6 36 7 36 35 0 17 -60 9 -80 -11 -20 -20
-20 -20 -20 0 0 14 -7 20 -23 20 -13 0 -27 -3 -30 -7z"/>
<path d="M2475 1621 c-11 -5 -29 -18 -40 -30 -16 -19 -17 -24 -5 -31 19 -12
30 -12 30 -1 0 18 32 41 56 41 33 0 64 -34 64 -69 0 -27 -3 -29 -62 -41 -76
-15 -118 -51 -118 -102 0 -49 34 -78 91 -78 24 0 54 7 66 15 19 13 22 13 27 0
3 -8 17 -15 32 -15 l26 0 -3 130 c-4 124 -5 131 -30 156 -29 28 -97 41 -134
25z m105 -193 c0 -62 -19 -88 -65 -88 -41 0 -57 19 -53 62 3 28 10 37 48 56
65 32 70 30 70 -30z"/>
<path d="M1051 1185 c-112 -32 -245 -120 -332 -220 -32 -36 -30 -36 28 12 81
67 181 126 263 155 55 19 85 22 195 22 145 0 180 -7 446 -93 83 -27 148 -46
143 -42 -17 16 -315 131 -392 152 -102 28 -276 35 -351 14z"/>
<path d="M1160 1065 c-55 -14 -130 -42 -130 -49 0 -2 32 7 71 21 90 31 220 40
326 23 43 -7 155 -33 248 -59 239 -67 265 -72 300 -63 l30 9 -39 12 c-27 10
-40 10 -45 3 -8 -13 -51 -4 -256 56 -77 22 -167 46 -199 51 -80 15 -239 12
-306 -4z"/>
</g>
</svg>
