<?xml version="1.0" standalone="no"?>
<!DOCTYPE svg PUBLIC "-//W3C//DTD SVG 20010904//EN"
 "http://www.w3.org/TR/2001/REC-SVG-20010904/DTD/svg10.dtd">
<svg version="1.0" xmlns="http://www.w3.org/2000/svg"
 width="300.000000pt" height="306.000000pt" viewBox="0 0 300.000000 306.000000"
 preserveAspectRatio="xMidYMid meet">
<metadata>
Created by potrace 1.10, written by Peter Selinger 2001-2011
</metadata>
<g transform="translate(0.000000,306.000000) scale(0.100000,-0.100000)"
fill="#000000" stroke="none">
<path d="M747 3043 c414 -2 1092 -2 1505 0 414 1 76 2 -752 2 -828 0 -1166 -1
-753 -2z"/>
<path d="M1544 2305 c-21 -33 -6 -72 31 -81 50 -13 86 53 49 90 -24 24 -61 20
-80 -9z m70 -20 c8 -21 -36 -38 -47 -19 -4 8 -5 19 -2 24 10 15 42 12 49 -5z"/>
<path d="M1303 2162 c-138 -49 -221 -188 -195 -325 19 -93 53 -201 77 -243 33
-57 107 -121 173 -152 46 -21 73 -26 137 -26 131 -1 248 18 299 48 79 46 115
136 94 237 l-12 57 36 41 c150 176 -38 444 -256 366 -31 -11 -55 -12 -115 -4
-151 20 -184 20 -238 1z m102 -9 c-11 -2 -31 -13 -45 -24 l-25 -20 38 15 c20
8 37 13 37 11 0 -2 13 0 30 5 21 6 34 5 43 -4 7 -7 17 -11 23 -9 17 6 77 -24
103 -51 29 -31 38 -98 15 -121 -20 -19 -41 -20 -25 -1 15 18 -10 62 -41 72
-26 8 -65 -13 -72 -39 -3 -12 -8 -18 -12 -15 -10 11 -55 -48 -60 -79 -2 -15
-6 -33 -9 -40 -2 -7 2 -10 11 -6 19 7 18 -26 -1 -51 -8 -11 -15 -35 -15 -53 0
-31 -2 -33 -33 -33 -26 0 -40 -8 -63 -35 -16 -19 -36 -35 -44 -35 -34 0 -78
50 -95 110 -1 3 -5 13 -9 22 -5 10 -6 38 -4 63 2 25 0 45 -4 45 -5 0 -8 -10
-8 -22 0 -12 -3 -18 -7 -14 -13 13 -2 99 18 142 43 91 161 174 244 172 19 0
22 -2 10 -5z m384 -8 c26 -4 39 -11 34 -18 -4 -6 0 -8 10 -4 10 4 27 -7 51
-33 64 -71 75 -177 26 -267 -16 -31 -19 -33 -29 -16 -9 15 -10 12 -11 -19 0
-20 -4 -39 -9 -42 -4 -3 -6 -16 -4 -28 2 -13 -2 -44 -11 -68 -13 -38 -13 -42
0 -26 7 11 14 25 14 32 0 7 5 16 11 19 14 9 6 -72 -9 -87 -7 -7 -12 -19 -12
-28 0 -18 -65 -84 -95 -95 -11 -4 -33 -11 -50 -16 l-30 -8 30 25 30 26 -32
-16 c-18 -9 -43 -16 -58 -16 -14 0 -25 -4 -25 -9 0 -5 -15 -10 -32 -9 -18 0
-59 -1 -90 -1 -112 -2 -219 65 -303 188 -46 69 -44 82 5 38 64 -58 113 -79
193 -80 39 -1 72 3 74 8 2 6 22 9 45 8 99 -5 232 -1 247 7 10 6 -73 10 -226
10 -155 0 -243 4 -243 10 0 6 9 10 20 10 15 0 20 7 20 25 0 23 4 25 44 25 30
0 46 5 50 15 4 10 20 15 51 15 38 0 45 3 45 20 0 13 7 20 20 20 15 0 20 7 20
25 0 30 -25 34 -33 6 -5 -22 -73 -55 -94 -47 -23 9 -14 37 17 47 18 7 30 18
30 29 0 10 2 33 6 51 l5 34 -16 -27 c-8 -16 -22 -28 -30 -28 -34 0 -5 74 36
92 15 7 25 16 23 20 -10 16 17 49 38 46 31 -5 46 -33 30 -58 -16 -27 -6 -43
24 -37 13 2 28 -1 34 -8 14 -17 -13 -38 -51 -38 -32 0 -28 -13 6 -19 12 -2 21
-13 23 -26 3 -16 10 -22 28 -22 l24 0 0 117 0 117 -40 47 c-44 52 -41 64 11
49 44 -13 49 -12 24 2 -19 12 -18 13 10 18 34 6 65 5 124 -5z"/>
<path d="M1675 2030 c3 -6 12 -10 19 -10 6 0 23 -5 37 -12 19 -9 25 -20 26
-45 1 -28 -2 -33 -23 -33 -15 0 -24 -6 -24 -15 0 -19 41 -16 57 5 17 20 16 71
-2 93 -14 20 -101 35 -90 17z"/>
<path d="M1680 1981 c0 -12 6 -21 16 -21 9 0 14 7 12 17 -5 25 -28 28 -28 4z"/>
<path d="M1524 1979 c-10 -17 13 -36 27 -22 12 12 4 33 -11 33 -5 0 -12 -5
-16 -11z"/>
<path d="M1680 1870 c0 -69 0 -70 26 -70 l27 0 -5 -80 c-5 -80 -5 -80 20 -80
21 0 23 2 11 16 -7 8 -14 42 -15 74 -3 60 -17 100 -34 100 -6 0 -10 25 -10 55
0 30 -4 55 -10 55 -6 0 -10 -30 -10 -70z"/>
<path d="M1464 1905 c-9 -14 -14 -28 -10 -32 3 -3 6 -1 6 5 0 15 29 42 45 42
11 0 12 -6 3 -30 -14 -42 -5 -58 34 -62 29 -3 34 -7 40 -38 l6 -35 -1 40 c-2
33 -6 40 -27 45 -22 5 -24 10 -22 48 3 41 3 42 -27 42 -22 0 -35 -7 -47 -25z"/>
<path d="M1500 1806 c0 -7 -14 -19 -30 -26 -40 -16 -33 -23 8 -9 21 7 32 18
32 30 0 10 -2 19 -5 19 -3 0 -5 -6 -5 -14z"/>
<path d="M1630 1710 l0 -70 35 0 35 0 0 70 0 70 -35 0 -35 0 0 -70z m51 2 c-5
-2 -8 -9 -5 -16 3 -8 -2 -16 -10 -19 -20 -8 -22 34 -4 63 12 19 13 19 21 -2 5
-14 4 -24 -2 -26z"/>
<path d="M1540 1690 l0 -50 35 0 35 0 0 50 0 50 -35 0 -35 0 0 -50z"/>
<path d="M1440 1670 c0 -28 2 -30 40 -30 38 0 40 2 40 30 0 28 -2 30 -40 30
-38 0 -40 -2 -40 -30z"/>
<path d="M1350 1655 c0 -10 11 -15 35 -15 24 0 35 5 35 15 0 10 -11 15 -35 15
-24 0 -35 -5 -35 -15z"/>
<path d="M2055 1865 c-30 -29 -31 -45 -4 -79 25 -31 61 -34 89 -6 28 28 25 64
-6 89 -34 27 -50 26 -79 -4z m62 -26 c16 -16 5 -39 -17 -39 -23 0 -34 16 -26
35 6 18 28 19 43 4z"/>
<path d="M1006 1801 c-10 -16 5 -41 24 -41 19 0 34 25 24 41 -3 5 -14 9 -24 9
-10 0 -21 -4 -24 -9z"/>
<path d="M1957 1733 c-13 -12 -7 -41 10 -47 9 -4 23 -1 30 7 8 7 11 21 7 30
-6 17 -35 23 -47 10z"/>
<path d="M1114 1486 c-10 -26 4 -48 28 -44 17 2 23 10 23 28 0 18 -6 26 -23
28 -13 2 -25 -3 -28 -12z"/>
<path d="M853 1273 c-14 -5 -18 -33 -5 -33 4 0 5 -43 4 -95 -5 -115 -1 -130
29 -115 17 10 20 18 15 43 -6 31 -4 33 51 58 60 26 91 63 80 93 -16 41 -122
71 -174 49z m92 -37 c19 -8 35 -22 35 -30 0 -19 -47 -56 -72 -56 -16 0 -18 7
-16 50 2 27 7 50 11 50 4 0 23 -7 42 -14z"/>
<path d="M1496 1264 c-3 -9 -6 -31 -6 -49 0 -19 -5 -57 -11 -85 -8 -38 -8 -54
1 -65 21 -25 40 -6 40 41 0 50 17 59 27 14 12 -62 42 -47 62 30 7 29 17 48 21
43 4 -4 12 -41 18 -82 12 -82 23 -101 46 -81 9 7 13 16 10 21 -3 5 -12 48 -20
96 -20 117 -22 123 -45 123 -15 0 -26 -14 -41 -50 -11 -27 -24 -50 -28 -50 -4
0 -11 17 -15 37 -9 48 -22 73 -39 73 -8 0 -17 -7 -20 -16z"/>
<path d="M1247 1253 c-4 -3 -7 -23 -7 -43 0 -40 -14 -60 -42 -60 -10 0 -18 -7
-18 -16 0 -12 7 -15 24 -12 24 5 25 3 31 -71 8 -89 11 -101 26 -101 8 0 10 26
7 90 l-4 89 30 3 c42 4 47 28 6 28 -35 0 -35 3 -14 78 5 17 2 22 -13 22 -11 0
-23 -3 -26 -7z"/>
<path d="M1856 1244 c-3 -9 -6 -28 -6 -44 0 -30 -14 -46 -44 -51 -26 -5 -17
-24 11 -24 23 1 27 -15 36 -135 1 -23 7 -35 17 -35 12 0 14 15 12 87 l-4 86
28 4 c40 4 43 28 4 28 -29 0 -32 2 -26 25 3 14 9 36 12 50 5 20 2 25 -14 25
-11 0 -23 -7 -26 -16z"/>
<path d="M1730 1230 c0 -16 5 -21 23 -18 12 2 22 10 22 18 0 8 -10 16 -22 18
-18 3 -23 -2 -23 -18z"/>
<path d="M1346 1222 c-2 -4 -6 -44 -7 -87 -3 -92 13 -110 45 -50 24 44 36 45
36 1 0 -44 9 -66 26 -66 15 0 18 39 8 103 -8 43 -26 48 -62 15 l-25 -23 7 58
c6 47 5 57 -8 57 -8 0 -17 -4 -20 -8z"/>
<path d="M1957 1214 c-9 -9 5 -168 16 -182 18 -22 36 6 34 54 -2 40 2 48 32
73 20 16 31 33 27 39 -10 16 -31 15 -46 -3 -16 -19 -30 -19 -30 -1 0 14 -24
29 -33 20z"/>
<path d="M1073 1203 c-7 -2 -13 -14 -13 -25 0 -14 5 -18 16 -14 45 17 64 18
64 2 0 -11 -9 -16 -28 -16 -33 0 -68 -22 -75 -49 -5 -22 18 -61 36 -61 7 0 24
-7 39 -14 25 -13 29 -13 37 2 14 28 22 142 11 163 -10 18 -56 25 -87 12z m57
-107 c0 -30 -13 -40 -40 -31 -25 8 -26 42 -2 48 35 9 42 6 42 -17z"/>
<path d="M2113 1203 c-7 -2 -13 -14 -13 -25 0 -14 5 -18 16 -14 45 17 64 18
64 2 0 -9 -8 -16 -20 -16 -34 0 -70 -23 -77 -48 -8 -34 7 -55 48 -67 19 -5 39
-13 45 -17 16 -10 21 7 30 91 5 51 3 75 -6 86 -12 14 -61 19 -87 8z m62 -110
c-4 -16 -8 -29 -10 -31 -8 -8 -55 12 -55 24 0 16 28 33 54 34 15 0 17 -5 11
-27z"/>
<path d="M1726 1164 c-3 -9 -6 -38 -6 -65 0 -42 3 -49 20 -49 17 0 20 7 20 43
0 23 3 52 6 65 5 17 2 22 -14 22 -11 0 -23 -7 -26 -16z"/>
</g>
</svg>
